<svg width="181" height="45" viewBox="0 0 181 45" fill="none" xmlns="http://www.w3.org/2000/svg">
<path d="M41.4141 30.6054L54.6523 43.7286C55.6065 44.6745 57.1521 44.6745 58.1064 43.7286C58.5497 43.289 58.8456 42.7028 58.8456 42.0498V5.59766L41.4141 30.6054Z" fill="#F5AF19"/>
<path d="M41.26 1H2.4326C1.10206 1 0 2.0925 0 3.4115V42.0487C0 43.3678 1.10206 44.4602 2.4326 44.4602C2.94331 44.4602 3.38682 44.3137 3.83034 44.0206C3.97816 43.9539 4.04537 43.874 4.1932 43.7275L18.1706 29.8713L24.9307 23.1698L29.4869 18.6531L47.1332 1H41.2466H41.26Z" fill="url(#paint0_linear_1361_257)"/>
<path d="M58.7604 3.4115C58.7604 3.26495 58.7604 3.11838 58.6932 2.97184C58.5454 1.79939 57.5105 1 56.3412 1H48.3984L30.0128 19.2261L18.5352 30.6041L27.513 43.5143C28.2522 44.6068 29.7977 44.8998 30.8998 44.1005C31.1149 43.9539 31.3434 43.7409 31.491 43.5143V43.4478L40.8989 29.9647L58.3975 4.65056L58.7604 4.14427V3.4115Z" fill="url(#paint1_linear_1361_257)"/>
<path d="M115.275 21.0757L115.275 21.0757C113.575 22.8241 111.493 23.6965 109.013 23.6965C106.533 23.6965 104.451 22.8244 102.751 21.0765C101.05 19.302 100.2 17.1551 100.2 14.6211C100.2 12.0869 101.05 9.93986 102.752 8.16522C104.452 6.39222 106.534 5.50823 109.013 5.50823C111.492 5.50823 113.574 6.39222 115.274 8.16522L115.275 8.16649C117.002 9.94136 117.864 12.088 117.864 14.6211C117.864 17.1542 117.002 19.3008 115.275 21.0757ZM145.311 21.0757L145.49 21.25L145.311 21.0757C143.611 22.8241 141.529 23.6965 139.049 23.6965C136.569 23.6965 134.487 22.8244 132.787 21.0765C131.086 19.302 130.235 17.1551 130.235 14.6211C130.235 12.0869 131.086 9.93986 132.787 8.16522C134.488 6.39222 136.569 5.50823 139.049 5.50823C141.528 5.50823 143.61 6.39222 145.31 8.16522L145.311 8.16649C147.037 9.94136 147.899 12.088 147.899 14.6211C147.899 17.1542 147.037 19.3008 145.311 21.0757ZM91.5435 25.3011L91.5137 4.4615C91.5116 2.95008 90.2857 1.72597 88.7743 1.72597C87.8036 1.72597 86.9054 2.23963 86.4132 3.07624L77.3738 18.44L68.1593 3.06045C67.6634 2.23262 66.7692 1.72597 65.8042 1.72597C64.2878 1.72597 63.0586 2.9552 63.0586 4.47153V25.2872C63.0586 26.6764 64.1848 27.8026 65.5739 27.8026C66.9631 27.8026 68.0893 26.6764 68.0893 25.2872V11.71L75.4809 23.858C75.8669 24.4924 76.5558 24.8796 77.2983 24.8796C78.0462 24.8796 78.7391 24.4869 79.1234 23.8453L86.5179 11.4996L86.5477 25.3101C86.5507 26.6875 87.6681 27.8026 89.0456 27.8026C90.4265 27.8026 91.5455 26.6821 91.5435 25.3011ZM175.038 4.33961V18.599L162.174 2.80171C161.623 2.12543 160.797 1.73291 159.925 1.73291C158.323 1.73291 157.025 3.0313 157.025 4.63294V25.2028C157.025 26.6425 158.192 27.8095 159.632 27.8095C161.071 27.8095 162.238 26.6425 162.238 25.2028V10.9434L175.103 26.7407C175.654 27.417 176.479 27.8095 177.352 27.8095C178.953 27.8095 180.252 26.5111 180.252 24.9095V4.33961C180.252 2.89997 179.085 1.73291 177.645 1.73291C176.205 1.73291 175.038 2.89997 175.038 4.33961ZM99.5839 5.04574C97.015 7.66548 95.7298 10.8623 95.7298 14.6211C95.7298 18.3554 97.0154 21.5396 99.5839 24.159C102.153 26.7793 105.301 28.0915 109.013 28.0915C112.749 28.0915 115.909 26.7797 118.479 24.1593C121.072 21.5402 122.371 18.3559 122.371 14.6211C122.371 10.8618 121.073 7.66479 118.479 5.0453C115.909 2.42497 112.749 1.11328 109.013 1.11328C105.301 1.11328 102.153 2.42548 99.5839 5.04574ZM129.62 5.04574C127.051 7.66548 125.766 10.8623 125.766 14.6211C125.766 18.3554 127.051 21.5396 129.62 24.159C132.189 26.7793 135.337 28.0915 139.049 28.0915C142.785 28.0915 145.945 26.7796 148.515 24.159C151.108 21.5399 152.407 18.3558 152.407 14.6211C152.407 10.862 151.109 7.66515 148.515 5.04574C145.945 2.42511 142.785 1.11328 139.049 1.11328C135.337 1.11328 132.189 2.42548 129.62 5.04574Z" fill="#0177FB" stroke="#0177FB" stroke-width="0.5"/>
<path d="M68.0467 35.8093L66.4482 40.2944H69.6452L68.0467 35.8093ZM71.0419 43.988L70.2039 41.7687H65.8895L65.036 43.988C64.9532 44.1949 64.8032 44.3449 64.5859 44.438C64.379 44.5311 64.1617 44.5415 63.9341 44.4691C63.7375 44.3966 63.5927 44.257 63.4996 44.05C63.4168 43.8328 63.4168 43.6155 63.4996 43.3982L66.8673 34.4747C67.0742 33.9367 67.4518 33.6677 68.0002 33.6677H68.0933C68.6313 33.6677 69.0037 33.9367 69.2107 34.4747L72.5784 43.3982C72.6611 43.6155 72.6559 43.8328 72.5628 44.05C72.4801 44.257 72.3404 44.3966 72.1438 44.4691C71.9162 44.5415 71.6938 44.5311 71.4765 44.438C71.2696 44.3449 71.1247 44.1949 71.0419 43.988Z" fill="#F5AF19"/>
<path d="M104.904 35.2661H102.296V39.0063H104.841C105.4 39.0063 105.824 38.8252 106.114 38.4631C106.404 38.0906 106.549 37.6509 106.549 37.144C106.549 36.637 106.409 36.1973 106.13 35.8248C105.85 35.4524 105.442 35.2661 104.904 35.2661ZM102.296 40.5116V43.6776C102.296 43.9052 102.214 44.1018 102.048 44.2673C101.882 44.4329 101.681 44.5156 101.443 44.5156C101.225 44.5156 101.039 44.4329 100.884 44.2673C100.729 44.1018 100.651 43.9052 100.651 43.6776V34.6454C100.651 34.366 100.729 34.1487 100.884 33.9936C101.05 33.828 101.262 33.7452 101.52 33.7452H104.935C106.011 33.7452 106.823 34.0763 107.371 34.7385C107.919 35.4006 108.194 36.2025 108.194 37.144C108.194 38.0855 107.919 38.8821 107.371 39.5339C106.833 40.1857 106.021 40.5116 104.935 40.5116H102.296Z" fill="#F5AF19"/>
<path d="M140.698 35.2661H138.091V39.0063H140.636C141.195 39.0063 141.619 38.8252 141.908 38.4631C142.198 38.0906 142.343 37.6509 142.343 37.144C142.343 36.637 142.203 36.1973 141.924 35.8248C141.645 35.4524 141.236 35.2661 140.698 35.2661ZM138.091 40.5116V43.6776C138.091 43.9052 138.008 44.1018 137.842 44.2673C137.677 44.4329 137.475 44.5156 137.237 44.5156C137.02 44.5156 136.834 44.4329 136.678 44.2673C136.523 44.1018 136.446 43.9052 136.446 43.6776V34.6454C136.446 34.366 136.523 34.1487 136.678 33.9936C136.844 33.828 137.056 33.7452 137.315 33.7452H140.729C141.805 33.7452 142.617 34.0763 143.165 34.7385C143.714 35.4006 143.988 36.2025 143.988 37.144C143.988 38.0855 143.714 38.8821 143.165 39.5339C142.627 40.1857 141.815 40.5116 140.729 40.5116H138.091Z" fill="#F5AF19"/>
<path d="M171.759 42.3119C171.686 42.0946 171.697 41.8825 171.79 41.6756C171.893 41.4583 172.049 41.3238 172.255 41.2721C172.773 41.1272 173.13 41.3031 173.326 41.7997C173.751 42.6585 174.428 43.0878 175.359 43.0878C175.959 43.0878 176.43 42.9482 176.772 42.6688C177.113 42.3895 177.315 42.0429 177.377 41.629C177.429 40.7496 176.865 40.1702 175.685 39.8909L174.335 39.5495C172.566 39.0735 171.681 38.1165 171.681 36.6784C171.681 35.7886 172.028 35.0592 172.721 34.4902C173.414 33.9108 174.242 33.6211 175.204 33.6211C176.839 33.6211 177.91 34.2832 178.417 35.6076C178.499 35.8145 178.494 36.0214 178.401 36.2283C178.318 36.4249 178.179 36.5542 177.982 36.6163C177.537 36.7612 177.196 36.6008 176.958 36.1352C176.585 35.4938 175.99 35.173 175.173 35.173C174.666 35.173 174.232 35.3127 173.869 35.592C173.507 35.861 173.326 36.2128 173.326 36.6474C173.326 37.3302 173.802 37.7958 174.754 38.0441L176.12 38.401C177.175 38.6804 177.941 39.1097 178.417 39.6891C178.893 40.2582 179.089 40.9358 179.006 41.7222C178.924 42.5705 178.546 43.2637 177.873 43.8017C177.211 44.3294 176.373 44.5932 175.359 44.5932C174.49 44.5932 173.73 44.3811 173.078 43.9569C172.437 43.5224 171.997 42.974 171.759 42.3119Z" fill="#F5AF19"/>
<defs>
<linearGradient id="paint0_linear_1361_257" x1="0" y1="1" x2="45.2822" y2="46.31" gradientUnits="userSpaceOnUse">
<stop offset="0.0001" stop-color="#46A6FE"/>
<stop offset="1" stop-color="#062AEA"/>
</linearGradient>
<linearGradient id="paint1_linear_1361_257" x1="18.5352" y1="1" x2="63.3408" y2="39.1793" gradientUnits="userSpaceOnUse">
<stop offset="0.0001" stop-color="#46A6FE"/>
<stop offset="1" stop-color="#062AEA"/>
</linearGradient>
</defs>
</svg>
